<svg xmlns="http://www.w3.org/2000/svg" width="1024" height="768" viewBox="0 0 1024 768">
<rect width="100%" height="100%" fill="#ffffff"/>
<style>svg{background:#fff}.g{fill:none;stroke:#111;stroke-width:2.8;stroke-linejoin:round;stroke-linecap:round}.arch{fill:none;stroke:#111;stroke-width:2.0;stroke-linejoin:round}.fig{fill:none;stroke:#111;stroke-width:2.4;stroke-linejoin:round;stroke-linecap:round}</style>
<!-- plate LM-029A panels primary baseline d2e97b5ca -->
<g transform="translate(0,0)">
<path class="arch" d="M748.90,320.47 L749.21,308.34"/>
<path class="arch" d="M275.10,320.47 L274.79,308.34"/>
<path class="g" d="M416.51,320.81 L416.46,315.74"/>
<path class="g" d="M363.69,320.81 L363.61,315.74"/>
<path class="g" d="M489.61,320.99 L534.39,320.99"/>
<path class="arch" d="M725.18,392.36 L726.78,321.51"/>
<path class="arch" d="M298.82,392.36 L297.22,321.51"/>
<path class="g" d="M489.61,320.99 L495.65,280.23 L512.00,265.88 L528.35,280.23 L534.39,320.99"/>
<path class="g" d="M460.80,321.43 L563.20,321.43"/>
<path class="fig" d="M714.87,389.52 L732.54,395.06"/>
<path class="g" d="M512.00,265.88 L512.00,270.52"/>
<path class="g" d="M765.53,326.30 L743.74,312.15 L699.81,285.80 L716.24,296.70 L765.53,326.30"/>
<path class="g" d="M738.64,311.50 L726.23,303.42"/>
<path class="fig" d="M655.26,398.20 L736.73,384.31"/>
<path class="g" d="M694.87,286.13 L699.81,285.80"/>
<path class="g" d="M493.97,327.65 L495.47,318.57"/>
<path class="g" d="M530.03,327.65 L528.53,318.57"/>
<path class="g" d="M385.74,318.96 L388.78,316.54"/>
<path class="g" d="M372.73,317.73 L401.83,317.73"/>
<path class="g" d="M765.53,326.30 L761.70,335.38 L738.34,325.30 L743.74,312.15"/>
<path class="g" d="M356.84,325.54 L412.10,325.54 L416.51,320.81 L363.69,320.81 L356.84,325.54"/>
<path class="g" d="M356.75,320.24 L412.05,320.24 L416.46,315.74 L363.61,315.74 L356.75,320.24"/>
<path class="fig" d="M721.97,102.73 L735.20,145.30 L749.39,160.70"/>
<path class="g" d="M457.71,327.87 L566.29,327.87 L561.78,318.77 L462.22,318.77 L457.71,327.87"/>
<path class="g" d="M741.32,312.39 L697.35,285.97"/>
<path class="arch" d="M285.78,403.00 L738.22,403.00 L725.18,392.36 L298.82,392.36 L285.78,403.00"/>
<path class="g" d="M459.30,324.44 L564.70,324.44"/>
<path class="fig" d="M684.14,93.86 L655.26,398.20 L736.73,384.31 L722.06,98.47 L684.14,93.86"/>
<path class="fig" d="M690.25,393.75 L703.14,400.38"/>
<path class="arch" d="M283.97,327.87 L740.03,327.87 L726.78,321.51 L297.22,321.51 L283.97,327.87"/>
<path class="arch" d="M255.11,329.07 L768.89,329.07 L748.90,320.47 L275.10,320.47 L255.11,329.07"/>
<path class="g" d="M694.51,315.74 L711.53,304.69"/>
<path class="g" d="M356.84,325.54 L356.75,320.24"/>
<path class="g" d="M412.10,325.54 L412.05,320.24"/>
<path class="arch" d="M254.76,315.93 L769.24,315.93 L749.21,308.34 L274.79,308.34 L254.76,315.93"/>
<path class="fig" d="M684.14,93.86 L722.06,98.47"/>
<path class="g" d="M738.88,312.63 L743.74,312.15"/>
<path class="fig" d="M703.46,96.20 L703.72,83.16"/>
<path class="fig" d="M714.74,66.24 L713.52,56.82 L709.77,49.40 L704.45,46.00 L698.98,47.58 L694.85,53.79 L693.20,62.95 L694.49,72.54 L698.36,79.94 L703.72,83.16 L709.12,81.41 L713.13,75.22 L714.74,66.24"/>
<path class="g" d="M709.56,332.70 L738.88,312.63 L694.87,286.13 L659.33,301.19 L709.56,332.70"/>
<path class="fig" d="M704.08,64.61 L721.77,64.86"/>
<path class="g" d="M709.56,332.70 L705.71,342.29 L733.47,325.83 L738.88,312.63"/>
<path class="arch" d="M285.78,403.00 L283.97,327.87"/>
<path class="arch" d="M738.22,403.00 L740.03,327.87"/>
<path class="fig" d="M684.06,98.28 L682.40,141.34 L714.50,158.60"/>
<path class="arch" d="M255.11,329.07 L254.76,315.93"/>
<path class="arch" d="M768.89,329.07 L769.24,315.93"/>
<path class="arch" d="M229.19,415.41 L245.56,404.01 L778.44,404.01 L794.81,415.41"/>
<path class="arch" d="M230.89,471.81 L793.11,471.81 L794.81,415.41 L229.19,415.41 L230.89,471.81"/>
<path class="arch" d="M198.06,487.21 L216.04,471.81 L807.96,471.81 L825.94,487.21"/>
<path class="arch" d="M200.05,546.20 L823.95,546.20 L825.94,487.21 L198.06,487.21 L200.05,546.20"/>
<path class="fig" d="M600.74,589.34 L667.29,578.64"/>
<path class="fig" d="M356.71,578.64 L423.26,589.34"/>
<path class="fig" d="M361.63,380.64 L356.71,578.64 L423.26,589.34 L412.57,384.32 L361.63,380.64"/>
<path class="fig" d="M600.74,589.34 L614.39,629.58 L690.37,615.95 L667.29,578.64"/>
<path class="fig" d="M356.71,578.64 L333.63,615.95 L409.61,629.58 L423.26,589.34"/>
<path class="arch" d="M163.35,567.26 L184.39,546.20 L839.61,546.20 L860.65,567.26"/>
<path class="fig" d="M611.43,384.32 L600.74,589.34 L667.29,578.64 L662.37,380.64 L611.43,384.32"/>
<path class="fig" d="M662.29,385.54 L679.44,434.70 L670.46,462.86"/>
<path class="fig" d="M361.71,385.54 L344.56,434.70 L353.54,462.86"/>
<path class="fig" d="M611.43,384.32 L662.37,380.64"/>
<path class="fig" d="M361.63,380.64 L412.57,384.32"/>
<path class="fig" d="M637.19,382.46 L637.39,367.55"/>
<path class="fig" d="M386.81,382.46 L386.61,367.55"/>
<path class="fig" d="M614.39,629.58 L690.37,615.95"/>
<path class="fig" d="M333.63,615.95 L409.61,629.58"/>
<path class="fig" d="M655.63,345.34 L653.40,334.91 L646.95,327.48 L637.95,325.06 L628.81,328.36 L622.00,336.54 L619.42,347.38 L621.75,357.93 L628.35,365.30 L637.39,367.55 L646.42,364.14 L653.08,356.01 L655.63,345.34"/>
<path class="fig" d="M404.58,347.38 L402.00,336.54 L395.19,328.36 L386.05,325.06 L377.05,327.48 L370.60,334.91 L368.37,345.34 L370.92,356.01 L377.58,364.14 L386.61,367.55 L395.65,365.30 L402.25,357.93 L404.58,347.38"/>
<path class="fig" d="M637.67,346.35 L651.49,351.35"/>
<path class="fig" d="M386.33,346.35 L372.51,351.35"/>
<path class="fig" d="M611.38,389.33 L603.04,442.12 L648.94,465.21"/>
<path class="fig" d="M412.62,389.33 L420.96,442.12 L375.06,465.21"/>
<path class="arch" d="M165.68,629.08 L858.32,629.08 L860.65,567.26 L163.35,567.26 L165.68,629.08"/>
<path class="fig" d="M648.94,465.21 L670.46,462.86"/>
<path class="fig" d="M353.54,462.86 L375.06,465.21"/>
<path class="arch" d="M124.40,657.07 L149.13,629.08 L874.87,629.08 L899.60,657.07"/>
<path class="arch" d="M127.16,722.00 L896.84,722.00 L899.60,657.07 L124.40,657.07 L127.16,722.00"/>
</g>
</svg>
