<svg xmlns="http://www.w3.org/2000/svg" width="1024" height="768" viewBox="0 0 1024 768">
<rect width="100%" height="100%" fill="#ffffff"/>
<style>svg{background:#fff}.g{fill:none;stroke:#111;stroke-width:2.8;stroke-linejoin:round;stroke-linecap:round}.arch{fill:none;stroke:#111;stroke-width:2.0;stroke-linejoin:round}.fig{fill:none;stroke:#111;stroke-width:2.4;stroke-linejoin:round;stroke-linecap:round}</style>
<!-- plate LM-025A panels primary baseline d2e97b5ca -->
<g transform="translate(0,0)">
<path class="arch" d="M403.61,425.71 L620.39,425.71 L610.16,392.34 L413.84,392.34 L403.61,425.71"/>
<path class="fig" d="M487.48,442.78 L488.90,421.37"/>
<path class="fig" d="M536.52,442.78 L535.10,421.37"/>
<path class="fig" d="M488.21,431.76 L535.79,431.76"/>
<path class="fig" d="M503.65,446.29 L503.89,431.76"/>
<path class="fig" d="M520.35,446.29 L520.11,431.76"/>
<path class="arch" d="M378.95,464.30 L392.04,425.71 L631.96,425.71 L645.05,464.30"/>
<path class="arch" d="M387.70,468.11 L636.30,468.11 L645.05,464.30 L378.95,464.30 L387.70,468.11"/>
<path class="arch" d="M610.16,392.34 L652.63,336.22"/>
<path class="arch" d="M413.84,392.34 L371.37,336.22"/>
<path class="fig" d="M499.82,461.80 L506.78,461.80 L507.66,446.29 L506.87,438.65 L498.58,438.65 L497.19,446.29 L499.82,461.80"/>
<path class="fig" d="M517.22,461.80 L524.18,461.80 L527.03,446.29 L525.85,438.65 L517.56,438.65 L516.57,446.29 L517.22,461.80"/>
<path class="arch" d="M369.43,507.25 L382.25,468.11 L641.75,468.11 L654.57,507.25"/>
<path class="arch" d="M379.04,508.25 L644.96,508.25 L654.57,507.25 L369.43,507.25 L379.04,508.25"/>
<path class="arch" d="M354.47,552.54 L368.98,508.25 L655.02,508.25 L669.53,552.54"/>
<path class="arch" d="M365.36,550.43 L658.64,550.43 L669.53,552.54 L354.47,552.54 L365.36,550.43"/>
<path class="fig" d="M436.52,569.53 L446.95,575.26 L454.13,557.17 L443.99,551.84 L436.52,569.53"/>
<path class="fig" d="M577.05,575.26 L587.48,569.53 L580.01,551.84 L569.87,557.17 L577.05,575.26"/>
<path class="fig" d="M454.40,579.34 L465.25,585.30 L471.90,566.49 L461.37,560.96 L454.40,579.34"/>
<path class="arch" d="M338.67,600.36 L355.05,550.43 L668.95,550.43 L685.33,600.36"/>
<path class="fig" d="M558.75,585.30 L569.60,579.34 L562.63,560.96 L552.10,566.49 L558.75,585.30"/>
<path class="arch" d="M350.96,594.81 L673.04,594.81 L685.33,600.36 L338.67,600.36 L350.96,594.81"/>
<path class="fig" d="M429.54,589.18 L438.13,594.12 L443.38,581.00 L434.95,576.30 L429.54,589.18"/>
<path class="fig" d="M585.87,594.12 L594.46,589.18 L589.05,576.30 L580.62,581.00 L585.87,594.12"/>
<path class="fig" d="M600.25,580.83 L588.40,553.78"/>
<path class="fig" d="M423.75,580.83 L435.60,553.78"/>
<path class="fig" d="M448.00,599.80 L456.95,604.94 L461.81,591.27 L453.04,586.39 L448.00,599.80"/>
<path class="fig" d="M559.65,609.20 L601.32,585.24"/>
<path class="fig" d="M422.68,585.24 L464.35,609.20"/>
<path class="fig" d="M567.05,604.94 L576.00,599.80 L570.96,586.39 L562.19,591.27 L567.05,604.94"/>
<path class="arch" d="M403.61,425.71 L349.40,377.51"/>
<path class="arch" d="M620.39,425.71 L674.60,377.51"/>
<path class="fig" d="M556.22,587.81 L559.65,609.20 L601.32,585.24 L594.16,566.94"/>
<path class="fig" d="M429.84,566.94 L422.68,585.24 L464.35,609.20 L467.78,587.81"/>
<path class="fig" d="M556.22,587.81 L594.16,566.94"/>
<path class="fig" d="M429.84,566.94 L467.78,587.81"/>
<path class="fig" d="M561.46,602.91 L551.27,573.53"/>
<path class="fig" d="M462.54,602.91 L472.73,573.53"/>
<path class="arch" d="M670.32,317.79 L676.18,310.22"/>
<path class="arch" d="M353.68,317.79 L347.82,310.22"/>
<path class="arch" d="M631.03,323.40 L639.69,308.94"/>
<path class="arch" d="M392.97,323.40 L384.31,308.94"/>
<path class="arch" d="M385.26,339.70 L638.74,339.70 L631.03,323.40 L392.97,323.40 L385.26,339.70"/>
<path class="arch" d="M188.57,871.18 L835.43,871.18 L723.58,594.81 L300.42,594.81 L188.57,871.18"/>
<path class="arch" d="M349.40,377.51 L674.60,377.51 L652.63,336.22 L371.37,336.22 L349.40,377.51"/>
<path class="fig" d="M612.30,597.09 L597.24,563.44"/>
<path class="fig" d="M411.70,597.09 L426.76,563.44"/>
<path class="fig" d="M463.38,386.69 L560.62,386.69"/>
<path class="g" d="M401.15,380.59 L399.67,383.36"/>
<path class="g" d="M440.63,380.59 L439.68,383.36"/>
<path class="arch" d="M385.26,339.70 L375.38,325.49"/>
<path class="arch" d="M638.74,339.70 L648.62,325.49"/>
<path class="fig" d="M480.61,270.91 L487.45,349.89 L488.90,421.37 L535.10,421.37 L536.55,349.89 L543.39,270.91 L480.61,270.91"/>
<path class="g" d="M495.10,351.01 L528.90,351.01"/>
<path class="fig" d="M572.63,597.92 L604.52,579.71"/>
<path class="fig" d="M419.48,579.71 L451.37,597.92"/>
<path class="arch" d="M375.38,325.49 L648.62,325.49 L639.69,308.94 L384.31,308.94 L375.38,325.49"/>
<path class="arch" d="M409.47,314.38 L405.82,306.98"/>
<path class="arch" d="M395.80,314.38 L391.67,306.98"/>
<path class="arch" d="M448.97,314.38 L446.72,306.98"/>
<path class="arch" d="M435.30,314.38 L432.57,306.98"/>
<path class="arch" d="M588.70,314.38 L591.43,306.98"/>
<path class="arch" d="M575.03,314.38 L577.28,306.98"/>
<path class="arch" d="M628.20,314.38 L632.33,306.98"/>
<path class="arch" d="M614.53,314.38 L618.18,306.98"/>
<path class="arch" d="M391.27,323.84 L405.47,323.84 L409.47,314.38 L395.80,314.38 L391.27,323.84"/>
<path class="arch" d="M432.30,323.84 L446.50,323.84 L448.97,314.38 L435.30,314.38 L432.30,323.84"/>
<path class="arch" d="M577.50,323.84 L591.70,323.84 L588.70,314.38 L575.03,314.38 L577.50,323.84"/>
<path class="arch" d="M618.53,323.84 L632.73,323.84 L628.20,314.38 L614.53,314.38 L618.53,323.84"/>
<path class="g" d="M472.97,355.34 L551.03,355.34"/>
<path class="arch" d="M308.19,388.42 L715.81,388.42 L670.32,317.79 L353.68,317.79 L308.19,388.42"/>
<path class="fig" d="M579.56,616.59 L566.15,580.48"/>
<path class="fig" d="M444.44,616.59 L457.85,580.48"/>
<path class="arch" d="M460.74,335.87 L563.26,335.87 L557.11,304.20 L466.89,304.20 L460.74,335.87"/>
<path class="fig" d="M396.94,577.91 L426.76,563.44 L435.60,553.78 L472.73,573.53 L457.85,580.48 L438.01,601.88 L396.94,577.91"/>
<path class="fig" d="M585.99,601.88 L566.15,580.48 L551.27,573.53 L588.40,553.78 L597.24,563.44 L627.06,577.91 L585.99,601.88"/>
<path class="g" d="M401.15,380.59 L440.63,380.59 L430.62,349.15 L385.60,349.15 L401.15,380.59"/>
<path class="arch" d="M391.27,323.84 L386.79,316.50"/>
<path class="arch" d="M405.47,323.84 L401.52,316.50"/>
<path class="arch" d="M432.30,323.84 L429.35,316.50"/>
<path class="arch" d="M446.50,323.84 L444.08,316.50"/>
<path class="arch" d="M577.50,323.84 L579.92,316.50"/>
<path class="arch" d="M591.70,323.84 L594.65,316.50"/>
<path class="arch" d="M618.53,323.84 L622.48,316.50"/>
<path class="arch" d="M632.73,323.84 L637.21,316.50"/>
<path class="arch" d="M386.79,316.50 L401.52,316.50 L405.82,306.98 L391.67,306.98 L386.79,316.50"/>
<path class="arch" d="M429.35,316.50 L444.08,316.50 L446.72,306.98 L432.57,306.98 L429.35,316.50"/>
<path class="arch" d="M579.92,316.50 L594.65,316.50 L591.43,306.98 L577.28,306.98 L579.92,316.50"/>
<path class="arch" d="M622.48,316.50 L637.21,316.50 L632.33,306.98 L618.18,306.98 L622.48,316.50"/>
<path class="g" d="M496.88,402.60 L499.91,336.38"/>
<path class="g" d="M527.12,402.60 L524.09,336.38"/>
<path class="g" d="M399.67,383.36 L439.68,383.36 L429.37,351.83 L383.67,351.83 L399.67,383.36"/>
<path class="arch" d="M298.36,381.98 L725.64,381.98 L676.18,310.22 L347.82,310.22 L298.36,381.98"/>
<path class="g" d="M650.05,362.00 L643.43,364.45 L633.70,378.86 L643.68,375.74"/>
<path class="g" d="M650.05,362.00 L643.68,375.74 L610.39,338.23 L616.37,324.29 L650.05,362.00"/>
<path class="g" d="M416.89,376.91 L409.82,359.99"/>
<path class="g" d="M401.99,368.75 L424.97,368.75"/>
<path class="g" d="M633.03,348.88 L628.49,355.67"/>
<path class="g" d="M466.49,402.68 L557.51,402.68 L548.40,336.48 L475.60,336.48 L466.49,402.68"/>
<path class="g" d="M495.10,351.01 L498.10,328.59 L512.00,319.28 L525.90,328.59 L528.90,351.01"/>
<path class="fig" d="M476.53,296.78 L485.02,377.38 L487.48,442.78 L536.52,442.78 L538.98,377.38 L547.47,296.78 L476.53,296.78"/>
<path class="g" d="M469.97,377.08 L554.03,377.08"/>
<path class="fig" d="M373.28,625.82 L411.70,597.09 L423.75,580.83 L462.54,602.91 L444.44,616.59 L417.21,654.68 L373.28,625.82"/>
<path class="fig" d="M606.79,654.68 L579.56,616.59 L561.46,602.91 L600.25,580.83 L612.30,597.09 L650.72,625.82 L606.79,654.68"/>
<path class="fig" d="M485.02,377.38 L487.45,349.89"/>
<path class="fig" d="M538.98,377.38 L536.55,349.89"/>
<path class="fig" d="M486.29,362.99 L537.71,362.99"/>
<path class="g" d="M430.62,349.15 L429.37,351.83"/>
<path class="g" d="M385.60,349.15 L383.67,351.83"/>
<path class="arch" d="M396.50,311.65 L372.94,268.73"/>
<path class="arch" d="M438.21,311.65 L423.16,268.73"/>
<path class="arch" d="M585.79,311.65 L600.84,268.73"/>
<path class="arch" d="M627.50,311.65 L651.06,268.73"/>
<path class="arch" d="M557.11,304.20 L580.37,191.82"/>
<path class="arch" d="M466.89,304.20 L443.63,191.82"/>
<path class="g" d="M606.73,341.91 L610.39,338.23"/>
<path class="g" d="M613.25,409.31 L606.95,410.38 L630.48,382.93 L640.43,379.99"/>
<path class="g" d="M642.07,377.85 L608.57,340.06"/>
<path class="arch" d="M308.19,388.42 L298.36,381.98"/>
<path class="arch" d="M715.81,388.42 L725.64,381.98"/>
<path class="g" d="M640.43,379.99 L643.68,375.74"/>
<path class="g" d="M602.50,383.72 L618.19,367.48"/>
<path class="fig" d="M474.88,286.99 L463.38,386.69 L560.62,386.69 L549.12,286.99"/>
<path class="g" d="M613.25,409.31 L640.43,379.99 L606.73,341.91 L574.66,364.87 L613.25,409.31"/>
<path class="g" d="M512.00,319.28 L512.00,329.67"/>
<path class="fig" d="M607.22,643.28 L622.69,633.31"/>
<path class="fig" d="M401.31,633.31 L416.78,643.28"/>
<path class="fig" d="M636.42,599.58 L633.22,593.49 L622.69,633.31"/>
<path class="fig" d="M387.58,599.58 L390.78,593.49 L401.31,633.31"/>
<path class="arch" d="M382.11,265.14 L377.30,255.61"/>
<path class="arch" d="M368.84,265.14 L363.53,255.61"/>
<path class="arch" d="M431.41,265.14 L428.42,255.61"/>
<path class="arch" d="M418.14,265.14 L414.66,255.61"/>
<path class="arch" d="M605.86,265.14 L609.34,255.61"/>
<path class="arch" d="M592.59,265.14 L595.58,255.61"/>
<path class="arch" d="M655.16,265.14 L660.47,255.61"/>
<path class="arch" d="M641.89,265.14 L646.70,255.61"/>
<path class="arch" d="M363.42,272.45 L377.19,272.45 L382.11,265.14 L368.84,265.14 L363.42,272.45"/>
<path class="arch" d="M414.58,272.45 L428.36,272.45 L431.41,265.14 L418.14,265.14 L414.58,272.45"/>
<path class="arch" d="M595.64,272.45 L609.42,272.45 L605.86,265.14 L592.59,265.14 L595.64,272.45"/>
<path class="arch" d="M646.81,272.45 L660.58,272.45 L655.16,265.14 L641.89,265.14 L646.81,272.45"/>
<path class="fig" d="M594.55,625.34 L577.26,627.40 L607.22,643.28"/>
<path class="fig" d="M429.45,625.34 L446.74,627.40 L416.78,643.28"/>
<path class="arch" d="M474.97,323.48 L549.03,323.48 L563.39,246.49 L460.61,246.49 L474.97,323.48"/>
<path class="fig" d="M479.25,286.99 L471.80,325.47 L484.91,354.47"/>
<path class="fig" d="M544.75,286.99 L552.20,325.47 L539.09,354.47"/>
<path class="arch" d="M363.42,272.45 L357.69,262.83"/>
<path class="arch" d="M377.19,272.45 L372.00,262.83"/>
<path class="arch" d="M414.58,272.45 L410.83,262.83"/>
<path class="arch" d="M428.36,272.45 L425.14,262.83"/>
<path class="arch" d="M595.64,272.45 L598.86,262.83"/>
<path class="arch" d="M609.42,272.45 L613.17,262.83"/>
<path class="arch" d="M646.81,272.45 L652.00,262.83"/>
<path class="arch" d="M660.58,272.45 L666.31,262.83"/>
<path class="arch" d="M357.69,262.83 L372.00,262.83 L377.30,255.61 L363.53,255.61 L357.69,262.83"/>
<path class="arch" d="M410.83,262.83 L425.14,262.83 L428.42,255.61 L414.66,255.61 L410.83,262.83"/>
<path class="arch" d="M598.86,262.83 L613.17,262.83 L609.34,255.61 L595.58,255.61 L598.86,262.83"/>
<path class="arch" d="M652.00,262.83 L666.31,262.83 L660.47,255.61 L646.70,255.61 L652.00,262.83"/>
<path class="arch" d="M460.74,335.87 L428.42,218.46"/>
<path class="arch" d="M563.26,335.87 L595.58,218.46"/>
<path class="fig" d="M650.72,625.82 L627.06,577.91"/>
<path class="fig" d="M373.28,625.82 L396.94,577.91"/>
<path class="fig" d="M595.90,627.03 L638.36,600.79"/>
<path class="fig" d="M385.64,600.79 L428.10,627.03"/>
<path class="arch" d="M367.68,259.15 L343.47,215.05"/>
<path class="arch" d="M419.80,259.15 L404.33,215.05"/>
<path class="arch" d="M604.20,259.15 L619.67,215.05"/>
<path class="arch" d="M656.32,259.15 L680.53,215.05"/>
<path class="fig" d="M617.64,613.59 L622.94,618.18"/>
<path class="fig" d="M406.36,613.59 L401.06,618.18"/>
<path class="fig" d="M606.79,654.68 L585.99,601.88"/>
<path class="fig" d="M417.21,654.68 L438.01,601.88"/>
<path class="fig" d="M476.53,296.78 L480.61,270.91"/>
<path class="fig" d="M547.47,296.78 L543.39,270.91"/>
<path class="fig" d="M478.70,283.06 L545.30,283.06"/>
<path class="fig" d="M512.00,283.06 L512.00,261.29"/>
<path class="arch" d="M310.62,203.81 L713.38,203.81 L698.46,194.04 L325.54,194.04 L310.62,203.81"/>
<path class="fig" d="M618.80,598.00 L624.54,604.56 L632.76,617.60 L641.35,634.12 L647.50,649.07 L649.01,657.25 L645.48,656.12 L638.44,646.83 L630.22,632.88 L622.94,618.18 L618.10,606.00 L616.59,598.73 L618.80,598.00"/>
<path class="fig" d="M405.20,598.00 L399.46,604.56 L391.24,617.60 L382.65,634.12 L376.50,649.07 L374.99,657.25 L378.52,656.12 L385.56,646.83 L393.78,632.88 L401.06,618.18 L405.90,606.00 L407.41,598.73 L405.20,598.00"/>
<path class="arch" d="M530.54,197.93 L531.57,179.98"/>
<path class="arch" d="M493.46,197.93 L492.43,179.98"/>
<path class="fig" d="M647.85,615.01 L650.92,620.09 L648.70,627.13 L641.35,634.12 L630.96,638.78 L620.95,639.57 L614.39,636.49 L612.78,630.76 L616.03,624.13 L622.94,618.18 L631.85,614.18 L640.83,612.98 L647.85,615.01"/>
<path class="fig" d="M512.00,232.21 L512.00,222.36 L512.00,216.78 L512.00,217.78 L512.00,225.76 L512.00,238.37 L512.00,251.27 L512.00,260.44 L512.00,263.81 L512.00,261.29 L512.00,253.98 L512.00,243.59 L512.00,232.21"/>
<path class="fig" d="M409.61,636.49 L403.05,639.57 L393.04,638.78 L382.65,634.12 L375.30,627.13 L373.08,620.09 L376.15,615.01 L383.17,612.98 L392.15,614.18 L401.06,618.18 L407.97,624.13 L411.22,630.76 L409.61,636.49"/>
<path class="fig" d="M532.41,241.21 L530.39,229.96 L522.94,221.14 L512.00,217.78 L501.06,221.14 L493.61,229.96 L491.59,241.21 L494.98,251.62 L502.43,258.77 L512.00,261.29 L521.57,258.77 L529.02,251.62 L532.41,241.21"/>
<path class="arch" d="M492.19,206.50 L531.81,206.50 L530.54,197.93 L493.46,197.93 L492.19,206.50"/>
<path class="fig" d="M631.44,625.54 L646.83,660.55"/>
<path class="fig" d="M392.56,625.54 L377.17,660.55"/>
<path class="fig" d="M512.00,241.21 L512.00,255.75"/>
<path class="arch" d="M428.42,218.46 L595.58,218.46 L580.37,191.82 L443.63,191.82 L428.42,218.46"/>
<path class="arch" d="M492.19,206.50 L491.02,187.77"/>
<path class="arch" d="M531.81,206.50 L532.98,187.77"/>
<path class="arch" d="M491.02,187.77 L532.98,187.77 L531.57,179.98 L492.43,179.98 L491.02,187.77"/>
<path class="arch" d="M440.76,46.00 L583.24,46.00"/>
</g>
</svg>
