<svg xmlns="http://www.w3.org/2000/svg" width="960" height="916" viewBox="0 0 960 916">
<rect width="100%" height="100%" fill="white"/>
<style>
text{fill:#000;font-family:sans-serif}.t{font-size:26px;font-weight:bold;font-family:serif}.h{font-size:17px;font-weight:bold}.s{font-size:13px}.m{font-size:11px}.box{fill:#fff;stroke:#000;stroke-width:2}.stone{fill:#fff;stroke:#000;stroke-width:1.5}.actor{fill:#fff;stroke:#000;stroke-width:2.5}.obj{fill:#000}.face{stroke:#000;stroke-width:2.5;fill:none}.path{stroke:#000;stroke-width:1.6;fill:none;stroke-dasharray:7 5}.axis{stroke:#000;stroke-width:1;fill:none}.blocked{fill:#000}
</style>
<text x="480" y="42" text-anchor="middle" class="t">LM-110A — RENDER SKELETON</text>
<text x="480" y="70" text-anchor="middle" class="s">Nobis quoque peccatoribus and the single breast strike</text>
<text x="480" y="92" text-anchor="middle" class="m">world frame: +X epistleward / -X gospelward, +Y altarward, +Z up · yaw 0° = epistleward, 90° = altarward · structural baseline d2e97b5ca</text>
<text x="480" y="112" text-anchor="middle" class="m">panels: 1 (primary) · additional panels: forbidden · geometry is binding; an artist may beautify but not restage</text>
<text x="480" y="136" text-anchor="middle" class="h">ART-READY</text>
<g transform="translate(30,150)">
<rect width="900" height="620" rx="8" class="box"/>
<text x="16" y="26" class="h">panel primary</text>
<text x="16" y="46" class="s">projection perspective · position priest-over-shoulder</text>
<line x1="6.0" y1="520.0" x2="894.0" y2="520.0" class="stone"/>
<line x1="54.0" y1="467.5" x2="846.0" y2="467.5" class="stone"/>
<line x1="102.0" y1="415.0" x2="798.0" y2="415.0" class="stone"/>
<line x1="150.0" y1="362.5" x2="750.0" y2="362.5" class="stone"/>
<line x1="198.0" y1="310.0" x2="702.0" y2="310.0" class="stone"/>
<rect x="198.0" y="236.5" width="504.0" height="14" class="stone"/>
<rect x="301.0" y="231.5" width="10" height="10" class="obj"/>
<line x1="306.0" y1="236.5" x2="286.5" y2="236.5" class="face"/>
<text x="315.0" y="228.5" class="m">missal 135°</text>
<rect x="445.0" y="231.5" width="10" height="10" class="obj"/>
<line x1="450.0" y1="236.5" x2="450.0" y2="236.5" class="face"/>
<text x="459.0" y="228.5" class="m">corporal 90°</text>
<rect x="445.0" y="231.5" width="10" height="10" class="obj"/>
<text x="459.0" y="215.5" class="m">host</text>
<rect x="445.0" y="231.5" width="10" height="10" class="obj"/>
<text x="459.0" y="202.5" class="m">chalice</text>
<rect x="445.0" y="181.1" width="10" height="10" class="obj"/>
<line x1="450.0" y1="186.1" x2="450.0" y2="186.1" class="face"/>
<text x="459.0" y="178.1" class="m">pall 90°</text>
<rect x="529.0" y="231.5" width="10" height="10" class="obj"/>
<line x1="534.0" y1="236.5" x2="506.4" y2="236.5" class="face"/>
<text x="543.0" y="228.5" class="m">paten 180°</text>
<rect x="529.0" y="231.5" width="10" height="10" class="obj"/>
<line x1="534.0" y1="236.5" x2="534.0" y2="236.5" class="face"/>
<text x="543.0" y="215.5" class="m">purificator 90°</text>
<rect x="673.0" y="231.5" width="10" height="10" class="obj"/>
<line x1="678.0" y1="236.5" x2="678.0" y2="236.5" class="face"/>
<text x="687.0" y="228.5" class="m">chalice-veil 90°</text>
<rect x="301.0" y="231.5" width="10" height="10" class="obj"/>
<line x1="306.0" y1="236.5" x2="306.0" y2="236.5" class="face"/>
<text x="315.0" y="215.5" class="m">burse 90°</text>
<rect x="565.0" y="462.5" width="10" height="10" class="obj"/>
<text x="579.0" y="459.5" class="m">bell</text>
<circle cx="450.0" cy="310.0" r="15" class="actor"/>
<circle cx="450.0" cy="310.0" r="4.5" class="obj"/>
<text x="450.0" y="340.0" text-anchor="middle" class="m">priest</text>
<text x="450.0" y="288.0" text-anchor="middle" class="m">90&#176; d2</text>
<circle cx="570.0" cy="467.5" r="15" class="actor"/>
<line x1="555.0" y1="467.5" x2="530.0" y2="467.5" class="face"/>
<text x="570.0" y="497.5" text-anchor="middle" class="m">AC1</text>
<text x="570.0" y="445.5" text-anchor="middle" class="m">117&#176; d1</text>
<circle cx="330.0" cy="467.5" r="15" class="actor"/>
<line x1="345.0" y1="467.5" x2="370.0" y2="467.5" class="face"/>
<text x="330.0" y="497.5" text-anchor="middle" class="m">AC2</text>
<text x="330.0" y="445.5" text-anchor="middle" class="m">63&#176; d1</text>
</g>
<text x="30" y="820" class="m">priest: predella-centre [0.0, 1.5, 1.0] · standing · bow none · faces altar @ 90° · hands palm-on-corporal | striking-breast</text>
<text x="30" y="838" class="m">AC1: step-1-epistle [0.5, 0.5, 0.25] · kneeling · bow none · faces altar @ 117° · hands joined-before-breast | joined-before-breast</text>
<text x="30" y="856" class="m">AC2: step-1-gospel [-0.5, 0.5, 0.25] · kneeling · bow none · faces altar @ 63° · hands joined-before-breast | joined-before-breast</text>
</svg>
